<svg viewBox="140.6 31.9 25.0 25.0" ><path transform="translate(-36.51, 0.0)" d="M 200.4906005859375 34.00136184692383 C 199.3459014892578 32.7188720703125 197.6852874755859 31.90700149536133 195.8312377929688 31.90700149536133 L 193.6750030517578 31.90700149536133 L 193.6750030517578 38.54477310180664 L 200.4906005859375 34.00136184692383 Z" fill="#0d2764" stroke="none" stroke-width="1" stroke-miterlimit="10" stroke-linecap="butt" /><path transform="translate(-3.5, 0.0)" d="M 152.4798889160156 31.90700149536133 L 150.3236541748047 31.90700149536133 C 148.4692993164062 31.90700149536133 146.8083801269531 32.71918487548828 145.6640014648438 34.00198745727539 L 152.4798889160156 38.5453987121582 L 152.4798889160156 31.90700149536133 Z" fill="#0d2764" stroke="none" stroke-width="1" stroke-miterlimit="10" stroke-linecap="butt" /><path transform="translate(-51.43, -16.12)" d="M 217.0068969726562 56.43145751953125 L 217.0068969726562 55.35043334960938 L 215.385009765625 56.43145751953125 L 217.0068969726562 56.43145751953125 Z" fill="#0d2764" stroke="none" stroke-width="1" stroke-miterlimit="10" stroke-linecap="butt" /><path transform="translate(-51.36, -36.51)" d="M 216.93115234375 86.11656188964844 L 216.93115234375 85.01248168945312 L 215.2748413085938 85.01248168945312 L 216.93115234375 86.11656188964844 Z" fill="#0d2764" stroke="none" stroke-width="1" stroke-miterlimit="10" stroke-linecap="butt" /><path transform="translate(0.0, -36.51)" d="M 140.5750732421875 85.01248168945312 L 140.5750732421875 86.1163330078125 L 142.23095703125 85.01248168945312 L 140.5750732421875 85.01248168945312 Z" fill="#0d2764" stroke="none" stroke-width="1" stroke-miterlimit="10" stroke-linecap="butt" /><path transform="translate(-36.51, -40.45)" d="M 193.6750030517578 97.35671234130859 L 195.8312377929688 97.35671234130859 C 197.6784057617188 97.35671234130859 199.3330993652344 96.55046081542969 200.4771575927734 95.27671813964844 L 193.6750030517578 90.74299621582031 L 193.6750030517578 97.35671234130859 Z" fill="#0d2764" stroke="none" stroke-width="1" stroke-miterlimit="10" stroke-linecap="butt" /><path transform="translate(-3.53, -40.45)" d="M 145.7070007324219 95.27572631835938 C 146.8513641357422 96.54977416992188 148.5060424804688 97.35601806640625 150.3532257080078 97.35601806640625 L 152.5094604492188 97.35601806640625 L 152.5094604492188 90.74199676513672 L 145.7070007324219 95.27572631835938 Z" fill="#0d2764" stroke="none" stroke-width="1" stroke-miterlimit="10" stroke-linecap="butt" /><path transform="translate(0.0, -16.12)" d="M 140.5750732421875 55.35073852539062 L 140.5750732421875 56.43166732788086 L 142.19677734375 56.43166732788086 L 140.5750732421875 55.35073852539062 Z" fill="#0d2764" stroke="none" stroke-width="1" stroke-miterlimit="10" stroke-linecap="butt" /><path transform="translate(0.0, 0.0)" d="M 150.6858673095703 31.90700149536133 L 148.981201171875 31.90700149536133 L 148.981201171875 38.5453987121582 L 142.1652984619141 34.00198745727539 C 141.5846862792969 34.65229797363281 141.1343688964844 35.42103958129883 140.8652954101562 36.27260208129883 L 146.9415283203125 40.31414031982422 L 143.6999816894531 40.31414031982422 L 140.5749969482422 38.23508834838867 L 140.5749969482422 39.23320770263672 L 142.1968688964844 40.31414031982422 L 140.5749969482422 40.31414031982422 L 140.5749969482422 42.01943969726562 L 150.6858673095703 42.01943969726562 L 150.6858673095703 31.90700149536133 Z" fill="#ffffff" stroke="none" stroke-width="1" stroke-miterlimit="10" stroke-linecap="butt" /><path transform="translate(-32.75, -32.75)" d="M 188.2149963378906 89.65806579589844 L 189.9212341308594 89.65806579589844 L 189.9212341308594 83.04435729980469 L 196.723388671875 87.57807922363281 C 197.3218231201172 86.91183471679688 197.7830657958984 86.12089538574219 198.0524444580078 85.24308776855469 L 192.0527954101562 81.25343322753906 L 195.293701171875 81.25343322753906 L 198.3274383544922 83.27060699462891 L 198.3274383544922 82.35779571533203 L 196.6712036132812 81.25343322753906 L 198.3274383544922 81.25343322753906 L 198.3274383544922 79.54499816894531 L 188.2149963378906 79.54499816894531 L 188.2149963378906 89.65806579589844 Z" fill="#ffffff" stroke="none" stroke-width="1" stroke-miterlimit="10" stroke-linecap="butt" /><path transform="translate(-32.75, 0.0)" d="M 189.9212341308594 40.31414031982422 L 189.9212341308594 39.49757766723633 L 197.2377624511719 34.63229370117188 C 197.0855712890625 34.41011047363281 196.9155883789062 34.2016716003418 196.73681640625 34.00136184692383 L 189.9212341308594 38.54477310180664 L 189.9212341308594 31.90700149536133 L 188.2149963378906 31.90700149536133 L 188.2149963378906 42.01943969726562 L 198.3274383544922 42.01943969726562 L 198.3274383544922 40.31414031982422 L 196.7055816650391 40.31414031982422 L 198.3274383544922 39.23289489746094 L 198.3274383544922 38.15696716308594 C 198.3274383544922 37.49509048461914 198.2230682373047 36.8585319519043 198.0324401855469 36.25978851318359 L 191.9381103515625 40.31414031982422 L 189.9212341308594 40.31414031982422 Z" fill="#ffffff" stroke="none" stroke-width="1" stroke-miterlimit="10" stroke-linecap="butt" /><path transform="translate(0.0, -32.75)" d="M 140.5749969482422 79.54499816894531 L 140.5749969482422 81.25343322753906 L 142.2309265136719 81.25343322753906 L 140.5749969482422 82.35748291015625 L 140.5749969482422 83.40810394287109 C 140.5749969482422 84.04747772216797 140.6721801757812 84.66403961181641 140.8506164550781 85.24528503417969 L 146.8540191650391 81.25343322753906 L 148.981201171875 81.25343322753906 L 148.981201171875 81.99154663085938 L 141.6296691894531 86.88120269775391 C 141.794677734375 87.12776947021484 141.9812316894531 87.35776519775391 142.1787414550781 87.57776641845703 L 148.981201171875 83.04403686523438 L 148.981201171875 89.65806579589844 L 150.6858673095703 89.65806579589844 L 150.6858673095703 79.54499816894531 L 140.5749969482422 79.54499816894531 Z" fill="#ffffff" stroke="none" stroke-width="1" stroke-miterlimit="10" stroke-linecap="butt" /><path transform="translate(0.0, 0.0)" d="M 155.4625244140625 31.90652465820312 L 150.6859436035156 31.90652465820312 L 150.6859436035156 42.01924896240234 L 140.5750732421875 42.01924896240234 L 140.5750732421875 46.79350280761719 L 150.6859436035156 46.79350280761719 L 150.6859436035156 56.90637588500977 L 155.4625244140625 56.90637588500977 L 155.4625244140625 46.79350280761719 L 165.5749206542969 46.79350280761719 L 165.5749206542969 42.01924896240234 L 155.4625244140625 42.01924896240234 L 155.4625244140625 31.90652465820312 Z" fill="#c20320" stroke="none" stroke-width="1" stroke-miterlimit="10" stroke-linecap="butt" /><path transform="translate(-41.2, -36.51)" d="M 200.4960021972656 85.01200103759766 L 206.4956665039062 89.00166320800781 C 206.6737823486328 88.42135620117188 206.7706604003906 87.805419921875 206.7706604003906 87.16667175292969 L 206.7706604003906 87.02918243408203 L 203.7369232177734 85.01200103759766 L 200.4960021972656 85.01200103759766 Z" fill="#c20320" stroke="none" stroke-width="1" stroke-miterlimit="10" stroke-linecap="butt" /><path transform="translate(-36.51, -6.0)" d="M 193.6750030517578 45.49328231811523 L 193.6750030517578 46.30984115600586 L 195.6918640136719 46.30984115600586 L 201.7862091064453 42.25548934936523 C 201.6002655029297 41.67111968994141 201.3305816650391 41.12393188476562 200.9915313720703 40.62799835205078 L 193.6750030517578 45.49328231811523 Z" fill="#c20320" stroke="none" stroke-width="1" stroke-miterlimit="10" stroke-linecap="butt" /><path transform="translate(-0.61, -36.51)" d="M 149.5875854492188 85.01200103759766 L 147.4604034423828 85.01200103759766 L 141.4570007324219 89.00385284423828 C 141.6373138427734 89.59072875976562 141.9013671875 90.14041137695312 142.2360534667969 90.63978576660156 L 149.5875854492188 85.7501220703125 L 149.5875854492188 85.01200103759766 Z" fill="#c20320" stroke="none" stroke-width="1" stroke-miterlimit="10" stroke-linecap="butt" /><path transform="translate(0.0, -9.6)" d="M 146.9415283203125 49.91853332519531 L 140.8652954101562 45.87699890136719 C 140.677490234375 46.4716796875 140.5749969482422 47.10417938232422 140.5749969482422 47.7613639831543 L 140.5749969482422 47.8394889831543 L 143.6999816894531 49.91853332519531 L 146.9415283203125 49.91853332519531 Z" fill="#c20320" stroke="none" stroke-width="1" stroke-miterlimit="10" stroke-linecap="butt" /></svg>
