<svg viewBox="167.0 406.0 80.0 27.6" ><path transform="translate(231.77, 442.83)" d="M -54.07494354248047 -22.33059692382812 C -53.93328857421875 -22.0877571105957 -53.80934143066406 -21.83227157592773 -53.70309829711914 -21.56413841247559 C -53.59685516357422 -21.29600524902344 -53.49314880371094 -21.02534103393555 -53.39196395874023 -20.75214767456055 C -53.29077911376953 -21.03545951843262 -53.18453979492188 -21.30612182617188 -53.07323455810547 -21.56413841247559 C -52.96193695068359 -21.82215309143066 -52.83545684814453 -22.08269882202148 -52.69380187988281 -22.34577560424805 L -45.33277130126953 -35.7170524597168 C -45.20123291015625 -35.94977188110352 -45.06463623046875 -36.09142684936523 -44.92297744750977 -36.14202117919922 C -44.78132629394531 -36.19260787963867 -44.57895660400391 -36.21790313720703 -44.31587982177734 -36.21790313720703 L -42.14551544189453 -36.21790313720703 L -42.14551544189453 -14.46870899200439 L -44.72566986083984 -14.46870899200439 L -44.72566986083984 -30.45050048828125 C -44.72566986083984 -30.66298294067383 -44.72061157226562 -30.89064407348633 -44.71049499511719 -31.13348007202148 C -44.70037841796875 -31.37631988525391 -44.68519973754883 -31.62421798706055 -44.66496276855469 -31.87717056274414 L -52.11706161499023 -18.27823257446289 C -52.37001800537109 -17.82291221618652 -52.72415924072266 -17.59525108337402 -53.17947769165039 -17.59525108337402 L -53.60444641113281 -17.59525108337402 C -54.05976867675781 -17.59525108337402 -54.41390609741211 -17.82291221618652 -54.66686248779297 -18.27823257446289 L -62.28591156005859 -31.92270660400391 C -62.25555419921875 -31.65962982177734 -62.2327880859375 -31.40161514282227 -62.21761322021484 -31.14865875244141 C -62.20243835449219 -30.89570236206055 -62.19484710693359 -30.66298294067383 -62.19484710693359 -30.45050048828125 L -62.19484710693359 -14.46870899200439 L -64.77500152587891 -14.46870899200439 L -64.77500152587891 -36.21790313720703 L -62.60463714599609 -36.21790313720703 C -62.34156036376953 -36.21790313720703 -62.13919830322266 -36.19260787963867 -61.99754333496094 -36.14202117919922 C -61.85588836669922 -36.09142684936523 -61.71928405761719 -35.94977188110352 -61.58775329589844 -35.7170524597168 L -54.07494354248047 -22.33059692382812 Z M -34.14703369140625 -14.46870899200439 L -34.14703369140625 -36.82500076293945 L -31.43028259277344 -36.82500076293945 L -31.43028259277344 -27.62750434875488 C -30.79283142089844 -28.36613845825195 -30.06178855895996 -28.96058654785156 -29.23715019226074 -29.41084671020508 C -28.41251182556152 -29.86111068725586 -27.46898460388184 -30.08624267578125 -26.40656661987305 -30.08624267578125 C -25.51616096496582 -30.08624267578125 -24.71175956726074 -29.91929054260254 -23.99336242675781 -29.58538818359375 C -23.27496719360352 -29.25148391723633 -22.66281127929688 -28.75316047668457 -22.15689849853516 -28.09041404724121 C -21.65098571777344 -27.42766952514648 -21.26143264770508 -26.60808944702148 -20.98823928833008 -25.63167953491211 C -20.71504783630371 -24.65526580810547 -20.57845115661621 -23.52960968017578 -20.57845115661621 -22.25470924377441 C -20.57845115661621 -21.12146377563477 -20.730224609375 -20.06663513183594 -21.03377151489258 -19.09022331237793 C -21.33732032775879 -18.11381149291992 -21.77493476867676 -17.26893615722656 -22.34661483764648 -16.55559921264648 C -22.91829872131348 -15.84226226806641 -23.61645889282227 -15.28069877624512 -24.44109535217285 -14.87090969085693 C -25.26573371887207 -14.46112060546875 -26.19408416748047 -14.2562255859375 -27.22614669799805 -14.2562255859375 C -28.21773529052734 -14.2562255859375 -29.06008148193359 -14.44847297668457 -29.75318145751953 -14.83296680450439 C -30.44628143310547 -15.21746063232422 -31.05084800720215 -15.75372791290283 -31.56687927246094 -16.44176864624023 L -31.70347595214844 -15.04545021057129 C -31.78442192077637 -14.66095638275146 -32.01714324951172 -14.46870899200439 -32.40163421630859 -14.46870899200439 L -34.14703369140625 -14.46870899200439 Z M -27.28685569763184 -27.93105316162109 C -28.16714477539062 -27.93105316162109 -28.93866157531738 -27.72868728637695 -29.60140800476074 -27.32395553588867 C -30.26415252685547 -26.91922760009766 -30.873779296875 -26.3475456237793 -31.43028259277344 -25.60891342163086 L -31.43028259277344 -18.1719913482666 C -30.94460678100586 -17.50418663024902 -30.40580749511719 -17.03368759155273 -29.81389045715332 -16.76049423217773 C -29.22197341918945 -16.48730087280273 -28.5617561340332 -16.35070419311523 -27.8332405090332 -16.35070419311523 C -26.39644813537598 -16.35070419311523 -25.29356002807617 -16.8616771697998 -24.52457237243652 -17.88362121582031 C -23.75558280944824 -18.90556335449219 -23.37108993530273 -20.36259460449219 -23.37108993530273 -22.25470924377441 C -23.37108993530273 -23.25641632080078 -23.45962333679199 -24.1164665222168 -23.63669395446777 -24.83486557006836 C -23.81376266479492 -25.55326080322266 -24.06924819946289 -26.14265060424805 -24.40315246582031 -26.60303115844727 C -24.7370548248291 -27.06341171264648 -25.14684295654297 -27.39984321594238 -25.63252067565918 -27.61232757568359 C -26.11819648742676 -27.82481002807617 -26.66964149475098 -27.93105125427246 -27.28685569763184 -27.93105316162109 Z M -14.23430442810059 -9.26286506652832 L -14.23430442810059 -29.84340286254883 L -12.62550163269043 -29.84340286254883 C -12.24100780487061 -29.84340286254883 -11.9981689453125 -29.65621566772461 -11.89698600769043 -29.28184127807617 L -11.66932678222656 -27.46055221557617 C -11.01163864135742 -28.25989723205566 -10.26035785675049 -28.90240478515625 -9.415483474731445 -29.38808059692383 C -8.570608139038086 -29.87375640869141 -7.596725463867188 -30.1165943145752 -6.493837356567383 -30.11659622192383 C -5.613550186157227 -30.1165943145752 -4.814208984375 -29.94711303710938 -4.095813751220703 -29.608154296875 C -3.377414703369141 -29.26919174194336 -2.7652587890625 -28.76833724975586 -2.259347915649414 -28.10559272766113 C -1.753435134887695 -27.44284629821777 -1.36387825012207 -26.6207389831543 -1.09068489074707 -25.63926696777344 C -0.8174953460693359 -24.65779685974121 -0.6809005737304688 -23.52960968017578 -0.6809005737304688 -22.25470924377441 C -0.6809005737304688 -21.12146377563477 -0.8326740264892578 -20.06663513183594 -1.13621711730957 -19.09022331237793 C -1.439769744873047 -18.11381149291992 -1.874853134155273 -17.26893615722656 -2.441476821899414 -16.55559921264648 C -3.008096694946289 -15.84226226806641 -3.703727722167969 -15.28069877624512 -4.528366088867188 -14.87090969085693 C -5.353002548217773 -14.46112060546875 -6.281352996826172 -14.2562255859375 -7.31341552734375 -14.2562255859375 C -8.264532089233398 -14.2562255859375 -9.076522827148438 -14.41305828094482 -9.749385833740234 -14.72672462463379 C -10.42224979400635 -15.04039096832275 -11.01669788360596 -15.48559379577637 -11.53272819519043 -16.06233406066895 L -11.53272819519043 -9.26286506652832 L -14.23430442810059 -9.26286506652832 Z M -7.389303207397461 -27.93105316162109 C -8.269590377807617 -27.93105316162109 -9.041108131408691 -27.72868728637695 -9.703853607177734 -27.32395553588867 C -10.36660003662109 -26.91922760009766 -10.97622489929199 -26.3475456237793 -11.53272819519043 -25.60891342163086 L -11.53272819519043 -18.1719913482666 C -11.03693389892578 -17.50418663024902 -10.49307823181152 -17.03368759155273 -9.90116024017334 -16.76049423217773 C -9.30924129486084 -16.48730087280273 -8.649024963378906 -16.35070419311523 -7.920511245727539 -16.35070419311523 C -6.49383544921875 -16.35070419311523 -5.396005630493164 -16.8616771697998 -4.627019882202148 -17.88362121582031 C -3.858034133911133 -18.90556335449219 -3.473537445068359 -20.36259460449219 -3.473537445068359 -22.25470924377441 C -3.473537445068359 -23.25641632080078 -3.56207275390625 -24.1164665222168 -3.739141464233398 -24.83486557006836 C -3.91621208190918 -25.55326080322266 -4.171695709228516 -26.14265060424805 -4.505598068237305 -26.60303115844727 C -4.839502334594727 -27.06341171264648 -5.249292373657227 -27.39984321594238 -5.734966278076172 -27.61232757568359 C -6.220643997192383 -27.82481002807617 -6.772089004516602 -27.93105125427246 -7.389303207397461 -27.93105316162109 Z M 14.35989189147949 -27.30877876281738 C 14.23847007751465 -27.08617782592773 14.05127906799316 -26.97487640380859 13.79832649230957 -26.97487831115723 C 13.64655494689941 -26.97487640380859 13.47454261779785 -27.0305290222168 13.28229713439941 -27.14182662963867 C 13.09004783630371 -27.25312805175781 12.85479927062988 -27.37707710266113 12.57654762268066 -27.51367378234863 C 12.29829597473145 -27.6502685546875 11.9669246673584 -27.77674865722656 11.58242988586426 -27.89310836791992 C 11.19793510437012 -28.00946998596191 10.74261283874512 -28.06764984130859 10.21646308898926 -28.06764984130859 C 9.761140823364258 -28.06764984130859 9.351350784301758 -28.00946998596191 8.987092971801758 -27.89310836791992 C 8.622838973999023 -27.77674865722656 8.311704635620117 -27.61738586425781 8.053686141967773 -27.41501998901367 C 7.795671463012695 -27.21265602111816 7.598367691040039 -26.9774055480957 7.461767196655273 -26.70927238464355 C 7.325174331665039 -26.44113922119141 7.256875991821289 -26.15023803710938 7.256875991821289 -25.83657073974609 C 7.256875991821289 -25.44196128845215 7.370706558227539 -25.11311721801758 7.598367691040039 -24.85004234313965 C 7.826028823852539 -24.58696746826172 8.127046585083008 -24.35930633544922 8.50141716003418 -24.16706085205078 C 8.875795364379883 -23.97481346130371 9.300760269165039 -23.80533218383789 9.77631950378418 -23.65861892700195 C 10.25187492370605 -23.51190185546875 10.74008369445801 -23.35507011413574 11.24093818664551 -23.18811798095703 C 11.74179267883301 -23.02116775512695 12.2299976348877 -22.83650970458984 12.70555686950684 -22.6341438293457 C 13.18111228942871 -22.43177795410156 13.60608100891113 -22.1788215637207 13.98045539855957 -21.87527465820312 C 14.35482978820801 -21.57172584533691 14.65584754943848 -21.19988059997559 14.88351249694824 -20.75973701477051 C 15.11117362976074 -20.3195915222168 15.22500419616699 -19.79091262817383 15.22500419616699 -19.17369842529297 C 15.22500419616699 -18.46541976928711 15.0985279083252 -17.81026458740234 14.84556770324707 -17.20822715759277 C 14.59261512756348 -16.60619163513184 14.21824073791504 -16.0851001739502 13.72244071960449 -15.64495658874512 C 13.22664451599121 -15.20481204986572 12.61955070495605 -14.85826206207275 11.90115165710449 -14.60530567169189 C 11.1827564239502 -14.35234928131104 10.35305976867676 -14.22587108612061 9.41206169128418 -14.22587108612061 C 8.339529037475586 -14.22587108612061 7.368173599243164 -14.40041065216064 6.498004913330078 -14.74949073791504 C 5.627834320068359 -15.09857082366943 4.889200210571289 -15.54630374908447 4.2821044921875 -16.09268951416016 L 4.919553756713867 -17.12475204467773 C 5.000503540039062 -17.25628852844238 5.096626281738281 -17.35747146606445 5.207925796508789 -17.42829895019531 C 5.31922721862793 -17.4991283416748 5.465940475463867 -17.53454208374023 5.648069381713867 -17.53454208374023 C 5.830198287963867 -17.53454208374023 6.02244758605957 -17.46371269226074 6.224811553955078 -17.32205772399902 C 6.427177429199219 -17.1804027557373 6.672544479370117 -17.02356910705566 6.960914611816406 -16.85155868530273 C 7.249284744262695 -16.6795482635498 7.598367691040039 -16.52271461486816 8.008153915405273 -16.38105964660645 C 8.417943954467773 -16.23940467834473 8.93144416809082 -16.16857719421387 9.54865837097168 -16.16857719421387 C 10.07480812072754 -16.16857719421387 10.53518867492676 -16.23687362670898 10.92980003356934 -16.37347030639648 C 11.32441139221191 -16.51006698608398 11.65325736999512 -16.69472503662109 11.91633033752441 -16.92744636535645 C 12.17940330505371 -17.16016578674316 12.37418174743652 -17.42829895019531 12.50066184997559 -17.73184776306152 C 12.62713813781738 -18.0353946685791 12.69037818908691 -18.35917854309082 12.69037818908691 -18.70320129394531 C 12.69037818908691 -19.12816619873047 12.57654762268066 -19.47977638244629 12.34888648986816 -19.75802993774414 C 12.12122535705566 -20.03628158569336 11.8202075958252 -20.2740592956543 11.44583320617676 -20.47136688232422 C 11.07145881652832 -20.66867256164551 10.64396095275879 -20.84068298339844 10.16334342956543 -20.98739814758301 C 9.682722091674805 -21.13411140441895 9.191991806030273 -21.28841590881348 8.691137313842773 -21.45030784606934 C 8.190282821655273 -21.61219787597656 7.699548721313477 -21.79685592651367 7.218931198120117 -22.00428199768066 C 6.738313674926758 -22.21170616149902 6.310815811157227 -22.47225189208984 5.936441421508789 -22.78591918945312 C 5.562065124511719 -23.09958267211914 5.261045455932617 -23.48660659790039 5.033384323120117 -23.94698715209961 C 4.805723190307617 -24.40736770629883 4.691896438598633 -24.96640205383301 4.691896438598633 -25.62408828735352 C 4.691896438598633 -26.21094512939453 4.813312530517578 -26.77503967285156 5.056154251098633 -27.31636810302734 C 5.298988342285156 -27.85769271850586 5.653131484985352 -28.333251953125 6.118570327758789 -28.7430419921875 C 6.584009170532227 -29.15283203125 7.155691146850586 -29.47914505004883 7.833616256713867 -29.72198486328125 C 8.511537551879883 -29.96482086181641 9.285585403442383 -30.08624267578125 10.15575218200684 -30.08624267578125 C 11.16758155822754 -30.08624267578125 12.07569313049316 -29.9268798828125 12.88009834289551 -29.608154296875 C 13.68449592590332 -29.2894287109375 14.38012886047363 -28.85181427001953 14.96698570251465 -28.29531097412109 L 14.35989189147949 -27.30877876281738 Z" fill="#ffffff" stroke="none" stroke-width="0.10000000149011612" stroke-miterlimit="4" stroke-linecap="butt" /></svg>
