<svg viewBox="107.0 87.0 200.0 10.1" ><path transform="translate(106.92, 101.49)" d="M 5.011657238006592 -8.452499389648438 L 5.011657238006592 -4.537394523620605 L 3.686016798019409 -4.537394523620605 L 3.686016798019409 -8.452499389648438 L 0.08000000566244125 -14.38010311126709 L 1.247662544250488 -14.38010311126709 C 1.366718292236328 -14.38010311126709 1.460589170455933 -14.35033988952637 1.529275417327881 -14.29081153869629 C 1.597961187362671 -14.23128318786621 1.657489061355591 -14.15801811218262 1.707859039306641 -14.07101631164551 L 3.960760831832886 -10.24520397186279 C 4.052342414855957 -10.08493614196777 4.12904167175293 -9.93382740020752 4.190859317779541 -9.791875839233398 C 4.252676010131836 -9.649925231933594 4.308769702911377 -9.510263442993164 4.359139919281006 -9.372891426086426 C 4.409509658813477 -9.51484203338623 4.464457988739014 -9.656793594360352 4.523986339569092 -9.798744201660156 C 4.583514213562012 -9.940695762634277 4.659068584442139 -10.08951568603516 4.750650405883789 -10.24520397186279 L 6.996684551239014 -14.07101631164551 C 7.037895202636719 -14.14428043365479 7.09398889541626 -14.214111328125 7.16496467590332 -14.28050804138184 C 7.235939502716064 -14.34690570831299 7.328665733337402 -14.38010311126709 7.443142890930176 -14.38010311126709 L 8.624542236328125 -14.38010311126709 L 5.011657238006592 -8.452499389648438 Z M 21.20095634460449 -9.455314636230469 C 21.20095634460449 -8.718084335327148 21.08419036865234 -8.041526794433594 20.85065650939941 -7.425642013549805 C 20.61712455749512 -6.809757232666016 20.28743171691895 -6.279729843139648 19.8615779876709 -5.83556079864502 C 19.43572425842285 -5.391390800476074 18.92401313781738 -5.046815872192383 18.32644462585449 -4.801836013793945 C 17.7288761138916 -4.55685567855835 17.06834602355957 -4.434365272521973 16.34485244750977 -4.434365272521973 C 15.62135982513428 -4.434365272521973 14.96197414398193 -4.55685567855835 14.36669540405273 -4.801836013793945 C 13.77141666412354 -5.046815872192383 13.26084995269775 -5.391390800476074 12.83499622344971 -5.83556079864502 C 12.40914154052734 -6.279730319976807 12.07944965362549 -6.809757232666016 11.84591674804688 -7.425642013549805 C 11.61238574981689 -8.041526794433594 11.49561882019043 -8.718084335327148 11.49561882019043 -9.455314636230469 C 11.49561882019043 -10.19254493713379 11.61238574981689 -10.86910247802734 11.84591674804688 -11.48498630523682 C 12.07944965362549 -12.10087203979492 12.40914154052734 -12.63204383850098 12.83499622344971 -13.07850360870361 C 13.26084995269775 -13.52496242523193 13.77141666412354 -13.87182712554932 14.36669540405273 -14.11909675598145 C 14.96197414398193 -14.36636543273926 15.62135982513428 -14.49000072479248 16.34485244750977 -14.4900016784668 C 17.06834602355957 -14.4900016784668 17.7288761138916 -14.36636638641357 18.32644462585449 -14.11909675598145 C 18.92401313781738 -13.871826171875 19.43572425842285 -13.52496147155762 19.8615779876709 -13.07850360870361 C 20.28743171691895 -12.63204383850098 20.61712455749512 -12.10087108612061 20.85065650939941 -11.48498630523682 C 21.08418846130371 -10.86910247802734 21.20095443725586 -10.19254493713379 21.20095634460449 -9.455314636230469 Z M 19.83410263061523 -9.455314636230469 C 19.83410263061523 -10.05975151062012 19.75167846679688 -10.60237121582031 19.58683204650879 -11.08317375183105 C 19.4219856262207 -11.5639762878418 19.18845367431641 -11.97036743164062 18.8862361907959 -12.3023509979248 C 18.58401679992676 -12.63433361053467 18.21769142150879 -12.88961696624756 17.78726005554199 -13.06820011138916 C 17.35682678222656 -13.24678325653076 16.87602424621582 -13.33607482910156 16.34485244750977 -13.33607578277588 C 15.81826019287109 -13.33607578277588 15.33974742889404 -13.24678325653076 14.90931415557861 -13.06820011138916 C 14.4788818359375 -12.88961696624756 14.11141109466553 -12.63433361053467 13.80690383911133 -12.3023509979248 C 13.5023946762085 -11.97036743164062 13.2677173614502 -11.5639762878418 13.10287094116211 -11.08317375183105 C 12.93802452087402 -10.60237121582031 12.8556022644043 -10.05975151062012 12.8556022644043 -9.455314636230469 C 12.8556022644043 -8.85087776184082 12.93802452087402 -8.309402465820312 13.10287094116211 -7.830889701843262 C 13.2677173614502 -7.352376937866211 13.5023946762085 -6.947129249572754 13.80690383911133 -6.615147113800049 C 14.11141109466553 -6.283164501190186 14.4788818359375 -6.029026031494141 14.90931415557861 -5.852732181549072 C 15.33974742889404 -5.676438331604004 15.81826019287109 -5.588291168212891 16.34485244750977 -5.588291168212891 C 16.87602424621582 -5.588291168212891 17.35682678222656 -5.676437854766846 17.78726005554199 -5.852732181549072 C 18.21769142150879 -6.029026031494141 18.58401679992676 -6.283164501190186 18.8862361907959 -6.615147113800049 C 19.18845558166504 -6.947129249572754 19.42198753356934 -7.352376937866211 19.58683204650879 -7.830889701843262 C 19.75167846679688 -8.309402465820312 19.83410263061523 -8.85087776184082 19.83410263061523 -9.455314636230469 Z M 29.59438705444336 -5.595159530639648 C 30.00192451477051 -5.595159530639648 30.3659610748291 -5.663845539093018 30.68649482727051 -5.801217555999756 C 31.00702857971191 -5.938589572906494 31.2783374786377 -6.130910873413086 31.50042343139648 -6.378180503845215 C 31.72250938415527 -6.625450134277344 31.89193344116211 -6.92080020904541 32.00870132446289 -7.264230251312256 C 32.12546920776367 -7.607660293579102 32.1838493347168 -7.985433578491211 32.1838493347168 -8.397549629211426 L 32.1838493347168 -14.38010311126709 L 33.50949096679688 -14.38010311126709 L 33.50949096679688 -8.397549629211426 C 33.50949096679688 -7.829745292663574 33.4190559387207 -7.303152084350586 33.23817825317383 -6.817770957946777 C 33.05730819702148 -6.332389831542969 32.79859161376953 -5.912260055541992 32.46202850341797 -5.557382106781006 C 32.12546539306641 -5.20250415802002 31.71449661254883 -4.924325942993164 31.22911643981934 -4.722846984863281 C 30.74373245239258 -4.52136754989624 30.19882202148438 -4.420628070831299 29.59438705444336 -4.420628070831299 C 28.98995018005371 -4.420628070831299 28.44503974914551 -4.52136754989624 27.95965957641602 -4.722846984863281 C 27.47427558898926 -4.924325942993164 27.06216049194336 -5.20250415802002 26.72331047058105 -5.557382106781006 C 26.38445854187012 -5.912260055541992 26.12459564208984 -6.332389831542969 25.94372367858887 -6.817770957946777 C 25.76284980773926 -7.303152084350586 25.67241287231445 -7.829745292663574 25.67241287231445 -8.397549629211426 L 25.67241287231445 -14.38010311126709 L 26.99805450439453 -14.38010311126709 L 26.99805450439453 -8.404417991638184 C 26.99805450439453 -7.992301940917969 27.05643653869629 -7.614528656005859 27.17320442199707 -7.271099090576172 C 27.28997230529785 -6.927668571472168 27.45939636230469 -6.632318496704102 27.68148231506348 -6.385048866271973 C 27.90356636047363 -6.137779235839844 28.17602157592773 -5.944313526153564 28.49884414672852 -5.804651737213135 C 28.8216667175293 -5.664990425109863 29.18684959411621 -5.595159530639648 29.59438705444336 -5.595159530639648 Z M 40.00718688964844 -8.644819259643555 L 40.00718688964844 -4.537394523620605 L 38.68154525756836 -4.537394523620605 L 38.68154525756836 -14.38010311126709 L 41.46333312988281 -14.38010311126709 C 42.08608627319336 -14.38010311126709 42.62412643432617 -14.31714057922363 43.07745361328125 -14.19121646881104 C 43.53078079223633 -14.06529140472412 43.90512084960938 -13.88327407836914 44.20046997070312 -13.64516353607178 C 44.49581909179688 -13.40705108642578 44.71447372436523 -13.11971378326416 44.85642242431641 -12.78315258026123 C 44.99837112426758 -12.44659042358398 45.0693473815918 -12.06996250152588 45.0693473815918 -11.6532678604126 C 45.0693473815918 -11.30525779724121 45.01439666748047 -10.98014450073242 44.90450286865234 -10.6779260635376 C 44.79460906982422 -10.37570762634277 44.63548278808594 -10.10439682006836 44.4271354675293 -9.863996505737305 C 44.21878433227539 -9.62359619140625 43.96464538574219 -9.418682098388672 43.66471862792969 -9.249256134033203 C 43.36479187011719 -9.079830169677734 43.02479553222656 -8.951616287231445 42.64472961425781 -8.864614486694336 C 42.80957794189453 -8.768453598022461 42.95610809326172 -8.628791809082031 43.08432006835938 -8.445630073547363 L 45.95539855957031 -4.537394523620605 L 44.77399826049805 -4.537394523620605 C 44.53130722045898 -4.537394523620605 44.35272216796875 -4.631265640258789 44.23824691772461 -4.819007396697998 L 41.68312835693359 -8.335732460021973 C 41.60528182983398 -8.445630073547363 41.52056884765625 -8.524619102478027 41.42898941040039 -8.572698593139648 C 41.33740615844727 -8.620779037475586 41.20003509521484 -8.644819259643555 41.01687240600586 -8.644819259643555 L 40.00718688964844 -8.644819259643555 Z M 40.00718688964844 -9.613292694091797 L 41.40151596069336 -9.613292694091797 C 41.79073715209961 -9.613292694091797 42.13302230834961 -9.66022777557373 42.42837142944336 -9.754098892211914 C 42.72372055053711 -9.847969055175781 42.97099304199219 -9.980762481689453 43.1701774597168 -10.1524772644043 C 43.36936950683594 -10.32419300079346 43.51933288574219 -10.52910614013672 43.62007522583008 -10.7672176361084 C 43.72080993652344 -11.00532913208008 43.77118301391602 -11.26862525939941 43.77118301391602 -11.55710792541504 C 43.77118301391602 -12.14322853088379 43.57771682739258 -12.58510875701904 43.1907844543457 -12.88274765014648 C 42.80385208129883 -13.18038845062256 42.22803497314453 -13.32920837402344 41.46333312988281 -13.32920742034912 L 40.00718688964844 -13.32920742034912 L 40.00718688964844 -9.613292694091797 Z M 57.11688232421875 -4.537394523620605 L 55.78437423706055 -4.537394523620605 L 55.78437423706055 -14.38010311126709 L 57.11688232421875 -14.38010311126709 L 57.11688232421875 -4.537394523620605 Z M 63.18872451782227 -14.38010311126709 C 63.30778121948242 -14.38010311126709 63.39592742919922 -14.36522197723389 63.45316696166992 -14.33545780181885 C 63.51041030883789 -14.30569362640381 63.57566070556641 -14.24502086639404 63.64892578125 -14.15343952178955 L 69.34986877441406 -6.735347747802734 C 69.33613586425781 -6.854403495788574 69.32697296142578 -6.970025062561035 69.32239532470703 -7.082212448120117 C 69.31781005859375 -7.194398880004883 69.31552124023438 -7.303152084350586 69.31552886962891 -7.40847110748291 L 69.31552886962891 -14.38010311126709 L 70.48318481445312 -14.38010311126709 L 70.48318481445312 -4.537394523620605 L 69.81006622314453 -4.537394523620605 C 69.70475006103516 -4.537394523620605 69.61660003662109 -4.555710792541504 69.54562377929688 -4.592343330383301 C 69.47464752197266 -4.628975868225098 69.40481567382812 -4.690793514251709 69.33613586425781 -4.777795791625977 L 63.64205551147461 -12.18901920318604 C 63.65121078491211 -12.07454299926758 63.6580810546875 -11.9623556137085 63.66266250610352 -11.85245704650879 C 63.66724014282227 -11.7425594329834 63.66953277587891 -11.64181995391846 63.66953277587891 -11.55023860931396 L 63.66953277587891 -4.537394523620605 L 62.50186538696289 -4.537394523620605 L 62.50186538696289 -14.38010311126709 L 63.18872451782227 -14.38010311126709 Z M 82.33839416503906 -14.38010311126709 L 82.33839416503906 -13.26052093505859 L 79.15823364257812 -13.26052093505859 L 79.15823364257812 -4.537394523620605 L 77.82572174072266 -4.537394523620605 L 77.82572174072266 -13.26052093505859 L 74.63182067871094 -13.26052093505859 L 74.63182067871094 -14.38010311126709 L 82.33839416503906 -14.38010311126709 Z M 92.55201721191406 -14.38010311126709 L 92.55201721191406 -13.29486465454102 L 87.82640838623047 -13.29486465454102 L 87.82640838623047 -10.02540874481201 L 91.65221405029297 -10.02540874481201 L 91.65221405029297 -8.981380462646484 L 87.82640838623047 -8.981380462646484 L 87.82640838623047 -5.622633934020996 L 92.55201721191406 -5.622633934020996 L 92.55201721191406 -4.537394523620605 L 86.48703002929688 -4.537394523620605 L 86.48703002929688 -14.38010311126709 L 92.55201721191406 -14.38010311126709 Z M 98.67879486083984 -8.644819259643555 L 98.67879486083984 -4.537394523620605 L 97.35315704345703 -4.537394523620605 L 97.35315704345703 -14.38010311126709 L 100.1349487304688 -14.38010311126709 C 100.757698059082 -14.38010311126709 101.2957458496094 -14.31714057922363 101.7490615844727 -14.19121646881104 C 102.202392578125 -14.06529140472412 102.5767288208008 -13.88327407836914 102.8720855712891 -13.64516353607178 C 103.1674270629883 -13.40705108642578 103.3860778808594 -13.11971378326416 103.5280380249023 -12.78315258026123 C 103.6699905395508 -12.44659042358398 103.740966796875 -12.06996250152588 103.740966796875 -11.6532678604126 C 103.740966796875 -11.30525779724121 103.6860122680664 -10.98014450073242 103.5761108398438 -10.6779260635376 C 103.4662170410156 -10.37570762634277 103.3070983886719 -10.10439682006836 103.098747253418 -9.863996505737305 C 102.8904037475586 -9.62359619140625 102.6362609863281 -9.418682098388672 102.3363342285156 -9.249256134033203 C 102.0363998413086 -9.079830169677734 101.6964111328125 -8.951616287231445 101.3163452148438 -8.864614486694336 C 101.481201171875 -8.768453598022461 101.6277313232422 -8.628791809082031 101.7559356689453 -8.445630073547363 L 104.6270065307617 -4.537394523620605 L 103.4456100463867 -4.537394523620605 C 103.2029190063477 -4.537394523620605 103.0243377685547 -4.631265640258789 102.9098587036133 -4.819007396697998 L 100.354736328125 -8.335732460021973 C 100.2768936157227 -8.445630073547363 100.1921844482422 -8.524619102478027 100.1006011962891 -8.572698593139648 C 100.0090255737305 -8.620779037475586 99.87165069580078 -8.644819259643555 99.68848419189453 -8.644819259643555 L 98.67879486083984 -8.644819259643555 Z M 98.67879486083984 -9.613292694091797 L 100.0731201171875 -9.613292694091797 C 100.4623413085938 -9.613292694091797 100.8046264648438 -9.66022777557373 101.099983215332 -9.754098892211914 C 101.3953323364258 -9.847969055175781 101.6426010131836 -9.980762481689453 101.841796875 -10.1524772644043 C 102.0409774780273 -10.32419300079346 102.1909484863281 -10.52910614013672 102.2916870117188 -10.7672176361084 C 102.3924255371094 -11.00532913208008 102.4427947998047 -11.26862525939941 102.4427947998047 -11.55710792541504 C 102.4427947998047 -12.14322853088379 102.2493362426758 -12.58510875701904 101.8624038696289 -12.88274765014648 C 101.4754638671875 -13.18038845062256 100.8996505737305 -13.32920837402344 100.1349487304688 -13.32920742034912 L 98.67879486083984 -13.32920742034912 L 98.67879486083984 -9.613292694091797 Z M 109.4968566894531 -14.38010311126709 C 109.6159057617188 -14.38010311126709 109.7040557861328 -14.36522197723389 109.7612915039062 -14.33545780181885 C 109.8185272216797 -14.30569362640381 109.8837814331055 -14.24502086639404 109.9570541381836 -14.15343952178955 L 115.6579971313477 -6.735347747802734 C 115.6442565917969 -6.854403495788574 115.6350936889648 -6.970025062561035 115.6305160522461 -7.082212448120117 C 115.6259307861328 -7.194398880004883 115.623649597168 -7.303152084350586 115.623649597168 -7.40847110748291 L 115.623649597168 -14.38010311126709 L 116.7913131713867 -14.38010311126709 L 116.7913131713867 -4.537394523620605 L 116.1181869506836 -4.537394523620605 C 116.0128707885742 -4.537394523620605 115.9247131347656 -4.555710792541504 115.8537445068359 -4.592343330383301 C 115.7827682495117 -4.628975868225098 115.7129364013672 -4.690793514251709 115.6442565917969 -4.777795791625977 L 109.9501800537109 -12.18901920318604 C 109.9593353271484 -12.07454299926758 109.9662094116211 -11.9623556137085 109.9707946777344 -11.85245704650879 C 109.9753723144531 -11.7425594329834 109.977653503418 -11.64181995391846 109.977653503418 -11.55023860931396 L 109.977653503418 -4.537394523620605 L 108.8099975585938 -4.537394523620605 L 108.8099975585938 -14.38010311126709 L 109.4968566894531 -14.38010311126709 Z M 128.0077362060547 -14.38010311126709 L 128.0077362060547 -13.29486465454102 L 123.2821350097656 -13.29486465454102 L 123.2821350097656 -10.02540874481201 L 127.1079406738281 -10.02540874481201 L 127.1079406738281 -8.981380462646484 L 123.2821350097656 -8.981380462646484 L 123.2821350097656 -5.622633934020996 L 128.0077362060547 -5.622633934020996 L 128.0077362060547 -4.537394523620605 L 121.9427642822266 -4.537394523620605 L 121.9427642822266 -14.38010311126709 L 128.0077362060547 -14.38010311126709 Z M 139.3752746582031 -14.38010311126709 L 139.3752746582031 -13.26052093505859 L 136.1950988769531 -13.26052093505859 L 136.1950988769531 -4.537394523620605 L 134.8626098632812 -4.537394523620605 L 134.8626098632812 -13.26052093505859 L 131.668701171875 -13.26052093505859 L 131.668701171875 -14.38010311126709 L 139.3752746582031 -14.38010311126709 Z M 153.9641876220703 -12.84153652191162 C 153.9229736328125 -12.77285003662109 153.8794708251953 -12.72133636474609 153.8336791992188 -12.68699264526367 C 153.7878875732422 -12.65264892578125 153.7283630371094 -12.63547706604004 153.6551055908203 -12.63547801971436 C 153.5772552490234 -12.63547706604004 153.4868316650391 -12.67439937591553 153.3837890625 -12.75224494934082 C 153.2807464599609 -12.83008766174316 153.1502532958984 -12.91594505310059 152.9922790527344 -13.00981616973877 C 152.8343048095703 -13.10368728637695 152.6442565917969 -13.18954467773438 152.4221954345703 -13.26738929748535 C 152.2001037597656 -13.34523391723633 151.9310913085938 -13.38415622711182 151.6151275634766 -13.38415622711182 C 151.3174896240234 -13.38415622711182 151.0541839599609 -13.34408950805664 150.8252258300781 -13.26395511627197 C 150.5962829589844 -13.1838207244873 150.4051055908203 -13.0750675201416 150.251708984375 -12.93769645690918 C 150.0982971191406 -12.80032444000244 149.9826812744141 -12.63891220092773 149.9048461914062 -12.45346069335938 C 149.8269958496094 -12.2680082321167 149.7880706787109 -12.0676736831665 149.7880706787109 -11.85245704650879 C 149.7880706787109 -11.57771301269531 149.8556060791016 -11.34990406036377 149.9906921386719 -11.16903114318848 C 150.1257781982422 -10.98815822601318 150.3043670654297 -10.83361434936523 150.5264434814453 -10.70540046691895 C 150.74853515625 -10.57718658447266 151.0003814697266 -10.46614456176758 151.2819976806641 -10.37227344512939 C 151.5635986328125 -10.27840232849121 151.8520812988281 -10.18109703063965 152.1474456787109 -10.08035755157471 C 152.4427947998047 -9.979618072509766 152.7312774658203 -9.866286277770996 153.0128936767578 -9.740362167358398 C 153.2944946289062 -9.614437103271484 153.5463409423828 -9.455314636230469 153.7684326171875 -9.262993812561035 C 153.9905090332031 -9.070672035217285 154.1690979003906 -8.834850311279297 154.3041839599609 -8.555527687072754 C 154.4392700195312 -8.276204109191895 154.5068054199219 -7.932773590087891 154.5068054199219 -7.525237083435059 C 154.5068054199219 -7.094804763793945 154.4335479736328 -6.690701484680176 154.2870178222656 -6.312928199768066 C 154.1404876708984 -5.935154914855957 153.9264068603516 -5.606606960296631 153.6448059082031 -5.32728385925293 C 153.3631896972656 -5.047960758209229 153.0174560546875 -4.828165531158447 152.6076354980469 -4.667898178100586 C 152.1978149414062 -4.507630348205566 151.7318878173828 -4.427496910095215 151.2098846435547 -4.427496910095215 C 150.5733795166016 -4.427496910095215 149.9929809570312 -4.543118476867676 149.4686889648438 -4.774361133575439 C 148.9443817138672 -5.005604267120361 148.4967803955078 -5.31812572479248 148.1258697509766 -5.711925506591797 L 148.5105133056641 -6.343837261199951 C 148.5471496582031 -6.394207000732422 148.591796875 -6.436563491821289 148.6444549560547 -6.470906257629395 C 148.6971130371094 -6.505249500274658 148.7554931640625 -6.522420883178711 148.8195953369141 -6.522420883178711 C 148.9157562255859 -6.522420883178711 149.0256652832031 -6.470906257629395 149.1493072509766 -6.36787748336792 C 149.2729339599609 -6.264848232269287 149.4274597167969 -6.151516437530518 149.6129150390625 -6.027881622314453 C 149.7983703613281 -5.90424633026123 150.0227508544922 -5.790914535522461 150.2860565185547 -5.687885761260986 C 150.5493469238281 -5.584856510162354 150.8710327148438 -5.533341884613037 151.2510833740234 -5.533341884613037 C 151.5670471191406 -5.533341884613037 151.8486633300781 -5.57684326171875 152.0959320068359 -5.663845539093018 C 152.3432006835938 -5.750847816467285 152.5526885986328 -5.873337745666504 152.7243957519531 -6.031315803527832 C 152.8961181640625 -6.18929386138916 153.0277557373047 -6.378180503845215 153.1193542480469 -6.597975730895996 C 153.2109375 -6.817770957946777 153.2567291259766 -7.062751293182373 153.2567291259766 -7.332916259765625 C 153.2567291259766 -7.630555629730225 153.1891784667969 -7.874391078948975 153.0540924072266 -8.064422607421875 C 152.9190216064453 -8.254453659057617 152.7415771484375 -8.413576126098633 152.5217742919922 -8.541790008544922 C 152.3019866943359 -8.670003890991211 152.0512847900391 -8.778757095336914 151.7696685791016 -8.868049621582031 C 151.4880523681641 -8.957341194152832 151.1995849609375 -9.048921585083008 150.9042205810547 -9.142793655395508 C 150.6088714599609 -9.236663818359375 150.3203887939453 -9.345417022705078 150.0387878417969 -9.469051361083984 C 149.7571716308594 -9.592687606811523 149.5064544677734 -9.752954483032227 149.2866668701172 -9.949853897094727 C 149.0668640136719 -10.14675331115723 148.8894348144531 -10.39287853240967 148.7543487548828 -10.68822860717773 C 148.6192626953125 -10.9835786819458 148.5517272949219 -11.34875965118408 148.5517272949219 -11.78377151489258 C 148.5517272949219 -12.13178062438965 148.6192626953125 -12.46834182739258 148.7543487548828 -12.79345607757568 C 148.8894348144531 -13.11856937408447 149.0851898193359 -13.40705013275146 149.3416137695312 -13.65890026092529 C 149.5980529785156 -13.91074848175049 149.9151458740234 -14.11222743988037 150.2929229736328 -14.26333618164062 C 150.6707000732422 -14.41444492340088 151.1045684814453 -14.49000072479248 151.5945281982422 -14.4900016784668 C 152.1440124511719 -14.4900016784668 152.6454162597656 -14.40299892425537 153.0987396240234 -14.22899436950684 C 153.5520629882812 -14.05498886108398 153.9481658935547 -13.80313968658447 154.2870178222656 -13.47344779968262 L 153.9641876220703 -12.84153652191162 Z M 160.4138031005859 -8.218965530395508 L 160.4138031005859 -4.537394523620605 L 159.0881652832031 -4.537394523620605 L 159.0881652832031 -14.38010311126709 L 161.9935913085938 -14.38010311126709 C 162.6163330078125 -14.38010311126709 163.1578216552734 -14.3079833984375 163.6180114746094 -14.163743019104 C 164.0782165527344 -14.01950168609619 164.4594116210938 -13.81458854675293 164.7616271972656 -13.5490026473999 C 165.0638580322266 -13.28341579437256 165.2893676757812 -12.96288108825684 165.4381866455078 -12.58739757537842 C 165.5870056152344 -12.2119140625 165.6614227294922 -11.79292869567871 165.6614227294922 -11.33044338226318 C 165.6614227294922 -10.87253570556641 165.5812835693359 -10.45355224609375 165.4210205078125 -10.07348918914795 C 165.2607574462891 -9.693426132202148 165.0260772705078 -9.366022109985352 164.7169799804688 -9.091279029846191 C 164.4078979492188 -8.816534042358398 164.0244140625 -8.602462768554688 163.5664978027344 -8.449064254760742 C 163.1085968017578 -8.295665740966797 162.5842895507812 -8.218965530395508 161.9935913085938 -8.218965530395508 L 160.4138031005859 -8.218965530395508 Z M 160.4138031005859 -9.276731491088867 L 161.9935913085938 -9.276731491088867 C 162.3736419677734 -9.276731491088867 162.7090759277344 -9.32710075378418 162.9998321533203 -9.427839279174805 C 163.2906036376953 -9.528579711914062 163.5344390869141 -9.66938591003418 163.7313385009766 -9.850259780883789 C 163.9282379150391 -10.03113174438477 164.0770721435547 -10.24749374389648 164.1778106689453 -10.49934196472168 C 164.2785339355469 -10.75119018554688 164.3289031982422 -11.02822494506836 164.3289031982422 -11.33044338226318 C 164.3289031982422 -11.9577751159668 164.1354370117188 -12.4477367401123 163.7485198974609 -12.80032444000244 C 163.3615875244141 -13.15291213989258 162.776611328125 -13.3292064666748 161.9935913085938 -13.32920742034912 L 160.4138031005859 -13.32920742034912 L 160.4138031005859 -9.276731491088867 Z M 176.1566467285156 -14.38010311126709 L 176.1566467285156 -13.29486465454102 L 171.4310455322266 -13.29486465454102 L 171.4310455322266 -10.02540874481201 L 175.2568511962891 -10.02540874481201 L 175.2568511962891 -8.981380462646484 L 171.4310455322266 -8.981380462646484 L 171.4310455322266 -5.622633934020996 L 176.1566467285156 -5.622633934020996 L 176.1566467285156 -4.537394523620605 L 170.0916748046875 -4.537394523620605 L 170.0916748046875 -14.38010311126709 L 176.1566467285156 -14.38010311126709 Z M 186.8854217529297 -14.38010311126709 L 186.8854217529297 -13.29486465454102 L 182.1598205566406 -13.29486465454102 L 182.1598205566406 -10.02540874481201 L 185.9856262207031 -10.02540874481201 L 185.9856262207031 -8.981380462646484 L 182.1598205566406 -8.981380462646484 L 182.1598205566406 -5.622633934020996 L 186.8854217529297 -5.622633934020996 L 186.8854217529297 -4.537394523620605 L 180.8204345703125 -4.537394523620605 L 180.8204345703125 -14.38010311126709 L 186.8854217529297 -14.38010311126709 Z M 200.0800018310547 -9.455314636230469 C 200.0800018310547 -8.718084335327148 199.9632263183594 -8.047250747680664 199.7296905517578 -7.442813873291016 C 199.4961700439453 -6.838376045227051 199.1664581298828 -6.32094144821167 198.7406158447266 -5.890509605407715 C 198.3147583007812 -5.460076808929443 197.8042144775391 -5.126949787139893 197.2089233398438 -4.891127586364746 C 196.6136474609375 -4.6553053855896 195.9542541503906 -4.537394523620605 195.2307739257812 -4.537394523620605 L 191.5491790771484 -4.537394523620605 L 191.5491790771484 -14.38010311126709 L 195.2307739257812 -14.38010311126709 C 195.9542541503906 -14.38010311126709 196.6136474609375 -14.26219272613525 197.2089233398438 -14.02637100219727 C 197.8042144775391 -13.79054927825928 198.3147583007812 -13.45627689361572 198.7406158447266 -13.02355480194092 C 199.1664581298828 -12.5908317565918 199.4961700439453 -12.07225227355957 199.7296905517578 -11.46781539916992 C 199.9632263183594 -10.86337852478027 200.0800018310547 -10.19254493713379 200.0800018310547 -9.455314636230469 Z M 198.7131500244141 -9.455314636230469 C 198.7131500244141 -10.05975151062012 198.6307373046875 -10.60008239746094 198.4658660888672 -11.0763053894043 C 198.3010406494141 -11.55252647399902 198.0675048828125 -11.95548439025879 197.7652893066406 -12.28517913818359 C 197.4630584716797 -12.61487197875977 197.0967407226562 -12.86672115325928 196.6663055419922 -13.04072570800781 C 196.2358551025391 -13.21473026275635 195.7573547363281 -13.30173206329346 195.2307739257812 -13.30173206329346 L 192.8885650634766 -13.30173206329346 L 192.8885650634766 -5.61576509475708 L 195.2307739257812 -5.61576509475708 C 195.7573547363281 -5.61576509475708 196.2358551025391 -5.702767372131348 196.6663055419922 -5.876771926879883 C 197.0967407226562 -6.050776958465576 197.4630584716797 -6.301480770111084 197.7652893066406 -6.628884315490723 C 198.0675048828125 -6.956287384033203 198.3010406494141 -7.358100891113281 198.4658660888672 -7.834323883056641 C 198.6307373046875 -8.310546875 198.7131500244141 -8.85087776184082 198.7131500244141 -9.455314636230469 Z" fill="#ffffff" stroke="none" stroke-width="0.10000000149011612" stroke-miterlimit="4" stroke-linecap="butt" /></svg>
